<?xml version="1.0" encoding="utf-8" standalone="no"?>
<!DOCTYPE svg PUBLIC "-//W3C//DTD SVG 1.1//EN"
  "http://www.w3.org/Graphics/SVG/1.1/DTD/svg11.dtd">
<svg xmlns:xlink="http://www.w3.org/1999/xlink" width="542.371444pt" height="226.345057pt" viewBox="0 0 542.371444 226.345057" xmlns="http://www.w3.org/2000/svg" version="1.1">
 <metadata>
  <rdf:RDF xmlns:dc="http://purl.org/dc/elements/1.1/" xmlns:cc="http://creativecommons.org/ns#" xmlns:rdf="http://www.w3.org/1999/02/22-rdf-syntax-ns#">
   <cc:Work>
    <dc:type rdf:resource="http://purl.org/dc/dcmitype/StillImage"/>
    <dc:date>2022-06-13T09:06:58.648020</dc:date>
    <dc:format>image/svg+xml</dc:format>
    <dc:creator>
     <cc:Agent>
      <dc:title>Matplotlib v3.5.1, https://matplotlib.org/</dc:title>
     </cc:Agent>
    </dc:creator>
   </cc:Work>
  </rdf:RDF>
 </metadata>
 <defs>
  <style type="text/css">*{stroke-linejoin: round; stroke-linecap: butt}</style>
 </defs>
 <g id="figure_1">
  <g id="patch_1">
   <path d="M 0 226.345057 
L 542.371444 226.345057 
L 542.371444 -0 
L 0 -0 
z
" style="fill: #ffffff"/>
  </g>
  <g id="axes_1">
   <g id="patch_2">
    <path d="M 32.012363 191.49387 
L 175.344712 191.49387 
L 175.344712 19.49505 
L 32.012363 19.49505 
z
" style="fill: #ffffff"/>
   </g>
   <g id="matplotlib.axis_1">
    <g id="xtick_1">
     <g id="line2d_1">
      <path d="M 32.012363 191.49387 
L 32.012363 19.49505 
" clip-path="url(#pfcee3c1965)" style="fill: none; stroke: #cccccc; stroke-width: 0.8; stroke-linecap: round"/>
     </g>
     <g id="text_1">
      <!-- 0 -->
      <g style="fill: #262626" transform="translate(29.810231 205.462857)scale(0.0792 -0.0792)">
       <defs>
        <path id="ArialMT-30" d="M 266 2259 
Q 266 3072 433 3567 
Q 600 4063 929 4331 
Q 1259 4600 1759 4600 
Q 2128 4600 2406 4451 
Q 2684 4303 2865 4023 
Q 3047 3744 3150 3342 
Q 3253 2941 3253 2259 
Q 3253 1453 3087 958 
Q 2922 463 2592 192 
Q 2263 -78 1759 -78 
Q 1097 -78 719 397 
Q 266 969 266 2259 
z
M 844 2259 
Q 844 1131 1108 757 
Q 1372 384 1759 384 
Q 2147 384 2411 759 
Q 2675 1134 2675 2259 
Q 2675 3391 2411 3762 
Q 2147 4134 1753 4134 
Q 1366 4134 1134 3806 
Q 844 3388 844 2259 
z
" transform="scale(0.015625)"/>
       </defs>
       <use xlink:href="#ArialMT-30"/>
      </g>
     </g>
    </g>
    <g id="xtick_2">
     <g id="line2d_2">
      <path d="M 60.678832 191.49387 
L 60.678832 19.49505 
" clip-path="url(#pfcee3c1965)" style="fill: none; stroke: #cccccc; stroke-width: 0.8; stroke-linecap: round"/>
     </g>
     <g id="text_2">
      <!-- 1 -->
      <g style="fill: #262626" transform="translate(58.476701 205.462857)scale(0.0792 -0.0792)">
       <defs>
        <path id="ArialMT-31" d="M 2384 0 
L 1822 0 
L 1822 3584 
Q 1619 3391 1289 3197 
Q 959 3003 697 2906 
L 697 3450 
Q 1169 3672 1522 3987 
Q 1875 4303 2022 4600 
L 2384 4600 
L 2384 0 
z
" transform="scale(0.015625)"/>
       </defs>
       <use xlink:href="#ArialMT-31"/>
      </g>
     </g>
    </g>
    <g id="xtick_3">
     <g id="line2d_3">
      <path d="M 89.345303 191.49387 
L 89.345303 19.49505 
" clip-path="url(#pfcee3c1965)" style="fill: none; stroke: #cccccc; stroke-width: 0.8; stroke-linecap: round"/>
     </g>
     <g id="text_3">
      <!-- 2 -->
      <g style="fill: #262626" transform="translate(87.143171 205.462857)scale(0.0792 -0.0792)">
       <defs>
        <path id="ArialMT-32" d="M 3222 541 
L 3222 0 
L 194 0 
Q 188 203 259 391 
Q 375 700 629 1000 
Q 884 1300 1366 1694 
Q 2113 2306 2375 2664 
Q 2638 3022 2638 3341 
Q 2638 3675 2398 3904 
Q 2159 4134 1775 4134 
Q 1369 4134 1125 3890 
Q 881 3647 878 3216 
L 300 3275 
Q 359 3922 746 4261 
Q 1134 4600 1788 4600 
Q 2447 4600 2831 4234 
Q 3216 3869 3216 3328 
Q 3216 3053 3103 2787 
Q 2991 2522 2730 2228 
Q 2469 1934 1863 1422 
Q 1356 997 1212 845 
Q 1069 694 975 541 
L 3222 541 
z
" transform="scale(0.015625)"/>
       </defs>
       <use xlink:href="#ArialMT-32"/>
      </g>
     </g>
    </g>
    <g id="xtick_4">
     <g id="line2d_4">
      <path d="M 118.011772 191.49387 
L 118.011772 19.49505 
" clip-path="url(#pfcee3c1965)" style="fill: none; stroke: #cccccc; stroke-width: 0.8; stroke-linecap: round"/>
     </g>
     <g id="text_4">
      <!-- 3 -->
      <g style="fill: #262626" transform="translate(115.809641 205.462857)scale(0.0792 -0.0792)">
       <defs>
        <path id="ArialMT-33" d="M 269 1209 
L 831 1284 
Q 928 806 1161 595 
Q 1394 384 1728 384 
Q 2125 384 2398 659 
Q 2672 934 2672 1341 
Q 2672 1728 2419 1979 
Q 2166 2231 1775 2231 
Q 1616 2231 1378 2169 
L 1441 2663 
Q 1497 2656 1531 2656 
Q 1891 2656 2178 2843 
Q 2466 3031 2466 3422 
Q 2466 3731 2256 3934 
Q 2047 4138 1716 4138 
Q 1388 4138 1169 3931 
Q 950 3725 888 3313 
L 325 3413 
Q 428 3978 793 4289 
Q 1159 4600 1703 4600 
Q 2078 4600 2393 4439 
Q 2709 4278 2876 4000 
Q 3044 3722 3044 3409 
Q 3044 3113 2884 2869 
Q 2725 2625 2413 2481 
Q 2819 2388 3044 2092 
Q 3269 1797 3269 1353 
Q 3269 753 2831 336 
Q 2394 -81 1725 -81 
Q 1122 -81 723 278 
Q 325 638 269 1209 
z
" transform="scale(0.015625)"/>
       </defs>
       <use xlink:href="#ArialMT-33"/>
      </g>
     </g>
    </g>
    <g id="xtick_5">
     <g id="line2d_5">
      <path d="M 146.678242 191.49387 
L 146.678242 19.49505 
" clip-path="url(#pfcee3c1965)" style="fill: none; stroke: #cccccc; stroke-width: 0.8; stroke-linecap: round"/>
     </g>
     <g id="text_5">
      <!-- 4 -->
      <g style="fill: #262626" transform="translate(144.476111 205.462857)scale(0.0792 -0.0792)">
       <defs>
        <path id="ArialMT-34" d="M 2069 0 
L 2069 1097 
L 81 1097 
L 81 1613 
L 2172 4581 
L 2631 4581 
L 2631 1613 
L 3250 1613 
L 3250 1097 
L 2631 1097 
L 2631 0 
L 2069 0 
z
M 2069 1613 
L 2069 3678 
L 634 1613 
L 2069 1613 
z
" transform="scale(0.015625)"/>
       </defs>
       <use xlink:href="#ArialMT-34"/>
      </g>
     </g>
    </g>
    <g id="xtick_6">
     <g id="line2d_6">
      <path d="M 175.344712 191.49387 
L 175.344712 19.49505 
" clip-path="url(#pfcee3c1965)" style="fill: none; stroke: #cccccc; stroke-width: 0.8; stroke-linecap: round"/>
     </g>
     <g id="text_6">
      <!-- 5 -->
      <g style="fill: #262626" transform="translate(173.142581 205.462857)scale(0.0792 -0.0792)">
       <defs>
        <path id="ArialMT-35" d="M 266 1200 
L 856 1250 
Q 922 819 1161 601 
Q 1400 384 1738 384 
Q 2144 384 2425 690 
Q 2706 997 2706 1503 
Q 2706 1984 2436 2262 
Q 2166 2541 1728 2541 
Q 1456 2541 1237 2417 
Q 1019 2294 894 2097 
L 366 2166 
L 809 4519 
L 3088 4519 
L 3088 3981 
L 1259 3981 
L 1013 2750 
Q 1425 3038 1878 3038 
Q 2478 3038 2890 2622 
Q 3303 2206 3303 1553 
Q 3303 931 2941 478 
Q 2500 -78 1738 -78 
Q 1113 -78 717 272 
Q 322 622 266 1200 
z
" transform="scale(0.015625)"/>
       </defs>
       <use xlink:href="#ArialMT-35"/>
      </g>
     </g>
    </g>
    <g id="text_7">
     <!-- Normal Stress (MPa) -->
     <g style="fill: #262626" transform="translate(63.355387 217.326607)scale(0.0864 -0.0864)">
      <defs>
       <path id="ArialMT-4e" d="M 488 0 
L 488 4581 
L 1109 4581 
L 3516 984 
L 3516 4581 
L 4097 4581 
L 4097 0 
L 3475 0 
L 1069 3600 
L 1069 0 
L 488 0 
z
" transform="scale(0.015625)"/>
       <path id="ArialMT-6f" d="M 213 1659 
Q 213 2581 725 3025 
Q 1153 3394 1769 3394 
Q 2453 3394 2887 2945 
Q 3322 2497 3322 1706 
Q 3322 1066 3130 698 
Q 2938 331 2570 128 
Q 2203 -75 1769 -75 
Q 1072 -75 642 372 
Q 213 819 213 1659 
z
M 791 1659 
Q 791 1022 1069 705 
Q 1347 388 1769 388 
Q 2188 388 2466 706 
Q 2744 1025 2744 1678 
Q 2744 2294 2464 2611 
Q 2184 2928 1769 2928 
Q 1347 2928 1069 2612 
Q 791 2297 791 1659 
z
" transform="scale(0.015625)"/>
       <path id="ArialMT-72" d="M 416 0 
L 416 3319 
L 922 3319 
L 922 2816 
Q 1116 3169 1280 3281 
Q 1444 3394 1641 3394 
Q 1925 3394 2219 3213 
L 2025 2691 
Q 1819 2813 1613 2813 
Q 1428 2813 1281 2702 
Q 1134 2591 1072 2394 
Q 978 2094 978 1738 
L 978 0 
L 416 0 
z
" transform="scale(0.015625)"/>
       <path id="ArialMT-6d" d="M 422 0 
L 422 3319 
L 925 3319 
L 925 2853 
Q 1081 3097 1340 3245 
Q 1600 3394 1931 3394 
Q 2300 3394 2536 3241 
Q 2772 3088 2869 2813 
Q 3263 3394 3894 3394 
Q 4388 3394 4653 3120 
Q 4919 2847 4919 2278 
L 4919 0 
L 4359 0 
L 4359 2091 
Q 4359 2428 4304 2576 
Q 4250 2725 4106 2815 
Q 3963 2906 3769 2906 
Q 3419 2906 3187 2673 
Q 2956 2441 2956 1928 
L 2956 0 
L 2394 0 
L 2394 2156 
Q 2394 2531 2256 2718 
Q 2119 2906 1806 2906 
Q 1569 2906 1367 2781 
Q 1166 2656 1075 2415 
Q 984 2175 984 1722 
L 984 0 
L 422 0 
z
" transform="scale(0.015625)"/>
       <path id="ArialMT-61" d="M 2588 409 
Q 2275 144 1986 34 
Q 1697 -75 1366 -75 
Q 819 -75 525 192 
Q 231 459 231 875 
Q 231 1119 342 1320 
Q 453 1522 633 1644 
Q 813 1766 1038 1828 
Q 1203 1872 1538 1913 
Q 2219 1994 2541 2106 
Q 2544 2222 2544 2253 
Q 2544 2597 2384 2738 
Q 2169 2928 1744 2928 
Q 1347 2928 1158 2789 
Q 969 2650 878 2297 
L 328 2372 
Q 403 2725 575 2942 
Q 747 3159 1072 3276 
Q 1397 3394 1825 3394 
Q 2250 3394 2515 3294 
Q 2781 3194 2906 3042 
Q 3031 2891 3081 2659 
Q 3109 2516 3109 2141 
L 3109 1391 
Q 3109 606 3145 398 
Q 3181 191 3288 0 
L 2700 0 
Q 2613 175 2588 409 
z
M 2541 1666 
Q 2234 1541 1622 1453 
Q 1275 1403 1131 1340 
Q 988 1278 909 1158 
Q 831 1038 831 891 
Q 831 666 1001 516 
Q 1172 366 1500 366 
Q 1825 366 2078 508 
Q 2331 650 2450 897 
Q 2541 1088 2541 1459 
L 2541 1666 
z
" transform="scale(0.015625)"/>
       <path id="ArialMT-6c" d="M 409 0 
L 409 4581 
L 972 4581 
L 972 0 
L 409 0 
z
" transform="scale(0.015625)"/>
       <path id="ArialMT-20" transform="scale(0.015625)"/>
       <path id="ArialMT-53" d="M 288 1472 
L 859 1522 
Q 900 1178 1048 958 
Q 1197 738 1509 602 
Q 1822 466 2213 466 
Q 2559 466 2825 569 
Q 3091 672 3220 851 
Q 3350 1031 3350 1244 
Q 3350 1459 3225 1620 
Q 3100 1781 2813 1891 
Q 2628 1963 1997 2114 
Q 1366 2266 1113 2400 
Q 784 2572 623 2826 
Q 463 3081 463 3397 
Q 463 3744 659 4045 
Q 856 4347 1234 4503 
Q 1613 4659 2075 4659 
Q 2584 4659 2973 4495 
Q 3363 4331 3572 4012 
Q 3781 3694 3797 3291 
L 3216 3247 
Q 3169 3681 2898 3903 
Q 2628 4125 2100 4125 
Q 1550 4125 1298 3923 
Q 1047 3722 1047 3438 
Q 1047 3191 1225 3031 
Q 1400 2872 2139 2705 
Q 2878 2538 3153 2413 
Q 3553 2228 3743 1945 
Q 3934 1663 3934 1294 
Q 3934 928 3725 604 
Q 3516 281 3123 101 
Q 2731 -78 2241 -78 
Q 1619 -78 1198 103 
Q 778 284 539 648 
Q 300 1013 288 1472 
z
" transform="scale(0.015625)"/>
       <path id="ArialMT-74" d="M 1650 503 
L 1731 6 
Q 1494 -44 1306 -44 
Q 1000 -44 831 53 
Q 663 150 594 308 
Q 525 466 525 972 
L 525 2881 
L 113 2881 
L 113 3319 
L 525 3319 
L 525 4141 
L 1084 4478 
L 1084 3319 
L 1650 3319 
L 1650 2881 
L 1084 2881 
L 1084 941 
Q 1084 700 1114 631 
Q 1144 563 1211 522 
Q 1278 481 1403 481 
Q 1497 481 1650 503 
z
" transform="scale(0.015625)"/>
       <path id="ArialMT-65" d="M 2694 1069 
L 3275 997 
Q 3138 488 2766 206 
Q 2394 -75 1816 -75 
Q 1088 -75 661 373 
Q 234 822 234 1631 
Q 234 2469 665 2931 
Q 1097 3394 1784 3394 
Q 2450 3394 2872 2941 
Q 3294 2488 3294 1666 
Q 3294 1616 3291 1516 
L 816 1516 
Q 847 969 1125 678 
Q 1403 388 1819 388 
Q 2128 388 2347 550 
Q 2566 713 2694 1069 
z
M 847 1978 
L 2700 1978 
Q 2663 2397 2488 2606 
Q 2219 2931 1791 2931 
Q 1403 2931 1139 2672 
Q 875 2413 847 1978 
z
" transform="scale(0.015625)"/>
       <path id="ArialMT-73" d="M 197 991 
L 753 1078 
Q 800 744 1014 566 
Q 1228 388 1613 388 
Q 2000 388 2187 545 
Q 2375 703 2375 916 
Q 2375 1106 2209 1216 
Q 2094 1291 1634 1406 
Q 1016 1563 777 1677 
Q 538 1791 414 1992 
Q 291 2194 291 2438 
Q 291 2659 392 2848 
Q 494 3038 669 3163 
Q 800 3259 1026 3326 
Q 1253 3394 1513 3394 
Q 1903 3394 2198 3281 
Q 2494 3169 2634 2976 
Q 2775 2784 2828 2463 
L 2278 2388 
Q 2241 2644 2061 2787 
Q 1881 2931 1553 2931 
Q 1166 2931 1000 2803 
Q 834 2675 834 2503 
Q 834 2394 903 2306 
Q 972 2216 1119 2156 
Q 1203 2125 1616 2013 
Q 2213 1853 2448 1751 
Q 2684 1650 2818 1456 
Q 2953 1263 2953 975 
Q 2953 694 2789 445 
Q 2625 197 2315 61 
Q 2006 -75 1616 -75 
Q 969 -75 630 194 
Q 291 463 197 991 
z
" transform="scale(0.015625)"/>
       <path id="ArialMT-28" d="M 1497 -1347 
Q 1031 -759 709 28 
Q 388 816 388 1659 
Q 388 2403 628 3084 
Q 909 3875 1497 4659 
L 1900 4659 
Q 1522 4009 1400 3731 
Q 1209 3300 1100 2831 
Q 966 2247 966 1656 
Q 966 153 1900 -1347 
L 1497 -1347 
z
" transform="scale(0.015625)"/>
       <path id="ArialMT-4d" d="M 475 0 
L 475 4581 
L 1388 4581 
L 2472 1338 
Q 2622 884 2691 659 
Q 2769 909 2934 1394 
L 4031 4581 
L 4847 4581 
L 4847 0 
L 4263 0 
L 4263 3834 
L 2931 0 
L 2384 0 
L 1059 3900 
L 1059 0 
L 475 0 
z
" transform="scale(0.015625)"/>
       <path id="ArialMT-50" d="M 494 0 
L 494 4581 
L 2222 4581 
Q 2678 4581 2919 4538 
Q 3256 4481 3484 4323 
Q 3713 4166 3852 3881 
Q 3991 3597 3991 3256 
Q 3991 2672 3619 2267 
Q 3247 1863 2275 1863 
L 1100 1863 
L 1100 0 
L 494 0 
z
M 1100 2403 
L 2284 2403 
Q 2872 2403 3119 2622 
Q 3366 2841 3366 3238 
Q 3366 3525 3220 3729 
Q 3075 3934 2838 4000 
Q 2684 4041 2272 4041 
L 1100 4041 
L 1100 2403 
z
" transform="scale(0.015625)"/>
       <path id="ArialMT-29" d="M 791 -1347 
L 388 -1347 
Q 1322 153 1322 1656 
Q 1322 2244 1188 2822 
Q 1081 3291 891 3722 
Q 769 4003 388 4659 
L 791 4659 
Q 1378 3875 1659 3084 
Q 1900 2403 1900 1659 
Q 1900 816 1576 28 
Q 1253 -759 791 -1347 
z
" transform="scale(0.015625)"/>
      </defs>
      <use xlink:href="#ArialMT-4e"/>
      <use xlink:href="#ArialMT-6f" x="72.216797"/>
      <use xlink:href="#ArialMT-72" x="127.832031"/>
      <use xlink:href="#ArialMT-6d" x="161.132812"/>
      <use xlink:href="#ArialMT-61" x="244.433594"/>
      <use xlink:href="#ArialMT-6c" x="300.048828"/>
      <use xlink:href="#ArialMT-20" x="322.265625"/>
      <use xlink:href="#ArialMT-53" x="350.048828"/>
      <use xlink:href="#ArialMT-74" x="416.748047"/>
      <use xlink:href="#ArialMT-72" x="444.53125"/>
      <use xlink:href="#ArialMT-65" x="477.832031"/>
      <use xlink:href="#ArialMT-73" x="533.447266"/>
      <use xlink:href="#ArialMT-73" x="583.447266"/>
      <use xlink:href="#ArialMT-20" x="633.447266"/>
      <use xlink:href="#ArialMT-28" x="661.230469"/>
      <use xlink:href="#ArialMT-4d" x="694.53125"/>
      <use xlink:href="#ArialMT-50" x="777.832031"/>
      <use xlink:href="#ArialMT-61" x="844.53125"/>
      <use xlink:href="#ArialMT-29" x="900.146484"/>
     </g>
    </g>
   </g>
   <g id="matplotlib.axis_2">
    <g id="ytick_1">
     <g id="line2d_7">
      <path d="M 32.012363 191.49387 
L 175.344712 191.49387 
" clip-path="url(#pfcee3c1965)" style="fill: none; stroke: #cccccc; stroke-width: 0.8; stroke-linecap: round"/>
     </g>
     <g id="text_8">
      <!-- 0 -->
      <g style="fill: #262626" transform="translate(19.3081 194.328364)scale(0.0792 -0.0792)">
       <use xlink:href="#ArialMT-30"/>
      </g>
     </g>
    </g>
    <g id="ytick_2">
     <g id="line2d_8">
      <path d="M 32.012363 162.8274 
L 175.344712 162.8274 
" clip-path="url(#pfcee3c1965)" style="fill: none; stroke: #cccccc; stroke-width: 0.8; stroke-linecap: round"/>
     </g>
     <g id="text_9">
      <!-- 1 -->
      <g style="fill: #262626" transform="translate(19.3081 165.661894)scale(0.0792 -0.0792)">
       <use xlink:href="#ArialMT-31"/>
      </g>
     </g>
    </g>
    <g id="ytick_3">
     <g id="line2d_9">
      <path d="M 32.012363 134.16093 
L 175.344712 134.16093 
" clip-path="url(#pfcee3c1965)" style="fill: none; stroke: #cccccc; stroke-width: 0.8; stroke-linecap: round"/>
     </g>
     <g id="text_10">
      <!-- 2 -->
      <g style="fill: #262626" transform="translate(19.3081 136.995424)scale(0.0792 -0.0792)">
       <use xlink:href="#ArialMT-32"/>
      </g>
     </g>
    </g>
    <g id="ytick_4">
     <g id="line2d_10">
      <path d="M 32.012363 105.49446 
L 175.344712 105.49446 
" clip-path="url(#pfcee3c1965)" style="fill: none; stroke: #cccccc; stroke-width: 0.8; stroke-linecap: round"/>
     </g>
     <g id="text_11">
      <!-- 3 -->
      <g style="fill: #262626" transform="translate(19.3081 108.328954)scale(0.0792 -0.0792)">
       <use xlink:href="#ArialMT-33"/>
      </g>
     </g>
    </g>
    <g id="ytick_5">
     <g id="line2d_11">
      <path d="M 32.012363 76.82799 
L 175.344712 76.82799 
" clip-path="url(#pfcee3c1965)" style="fill: none; stroke: #cccccc; stroke-width: 0.8; stroke-linecap: round"/>
     </g>
     <g id="text_12">
      <!-- 4 -->
      <g style="fill: #262626" transform="translate(19.3081 79.662484)scale(0.0792 -0.0792)">
       <use xlink:href="#ArialMT-34"/>
      </g>
     </g>
    </g>
    <g id="ytick_6">
     <g id="line2d_12">
      <path d="M 32.012363 48.16152 
L 175.344712 48.16152 
" clip-path="url(#pfcee3c1965)" style="fill: none; stroke: #cccccc; stroke-width: 0.8; stroke-linecap: round"/>
     </g>
     <g id="text_13">
      <!-- 5 -->
      <g style="fill: #262626" transform="translate(19.3081 50.996014)scale(0.0792 -0.0792)">
       <use xlink:href="#ArialMT-35"/>
      </g>
     </g>
    </g>
    <g id="ytick_7">
     <g id="line2d_13">
      <path d="M 32.012363 19.49505 
L 175.344712 19.49505 
" clip-path="url(#pfcee3c1965)" style="fill: none; stroke: #cccccc; stroke-width: 0.8; stroke-linecap: round"/>
     </g>
     <g id="text_14">
      <!-- 6 -->
      <g style="fill: #262626" transform="translate(19.3081 22.329544)scale(0.0792 -0.0792)">
       <defs>
        <path id="ArialMT-36" d="M 3184 3459 
L 2625 3416 
Q 2550 3747 2413 3897 
Q 2184 4138 1850 4138 
Q 1581 4138 1378 3988 
Q 1113 3794 959 3422 
Q 806 3050 800 2363 
Q 1003 2672 1297 2822 
Q 1591 2972 1913 2972 
Q 2475 2972 2870 2558 
Q 3266 2144 3266 1488 
Q 3266 1056 3080 686 
Q 2894 316 2569 119 
Q 2244 -78 1831 -78 
Q 1128 -78 684 439 
Q 241 956 241 2144 
Q 241 3472 731 4075 
Q 1159 4600 1884 4600 
Q 2425 4600 2770 4297 
Q 3116 3994 3184 3459 
z
M 888 1484 
Q 888 1194 1011 928 
Q 1134 663 1356 523 
Q 1578 384 1822 384 
Q 2178 384 2434 671 
Q 2691 959 2691 1453 
Q 2691 1928 2437 2201 
Q 2184 2475 1800 2475 
Q 1419 2475 1153 2201 
Q 888 1928 888 1484 
z
" transform="scale(0.015625)"/>
       </defs>
       <use xlink:href="#ArialMT-36"/>
      </g>
     </g>
    </g>
    <g id="text_15">
     <!-- Shear Stress (MPa) -->
     <g style="fill: #262626" transform="translate(13.48965 143.423385)rotate(-90)scale(0.0864 -0.0864)">
      <defs>
       <path id="ArialMT-68" d="M 422 0 
L 422 4581 
L 984 4581 
L 984 2938 
Q 1378 3394 1978 3394 
Q 2347 3394 2619 3248 
Q 2891 3103 3008 2847 
Q 3125 2591 3125 2103 
L 3125 0 
L 2563 0 
L 2563 2103 
Q 2563 2525 2380 2717 
Q 2197 2909 1863 2909 
Q 1613 2909 1392 2779 
Q 1172 2650 1078 2428 
Q 984 2206 984 1816 
L 984 0 
L 422 0 
z
" transform="scale(0.015625)"/>
      </defs>
      <use xlink:href="#ArialMT-53"/>
      <use xlink:href="#ArialMT-68" x="66.699219"/>
      <use xlink:href="#ArialMT-65" x="122.314453"/>
      <use xlink:href="#ArialMT-61" x="177.929688"/>
      <use xlink:href="#ArialMT-72" x="233.544922"/>
      <use xlink:href="#ArialMT-20" x="266.845703"/>
      <use xlink:href="#ArialMT-53" x="294.628906"/>
      <use xlink:href="#ArialMT-74" x="361.328125"/>
      <use xlink:href="#ArialMT-72" x="389.111328"/>
      <use xlink:href="#ArialMT-65" x="422.412109"/>
      <use xlink:href="#ArialMT-73" x="478.027344"/>
      <use xlink:href="#ArialMT-73" x="528.027344"/>
      <use xlink:href="#ArialMT-20" x="578.027344"/>
      <use xlink:href="#ArialMT-28" x="605.810547"/>
      <use xlink:href="#ArialMT-4d" x="639.111328"/>
      <use xlink:href="#ArialMT-50" x="722.412109"/>
      <use xlink:href="#ArialMT-61" x="789.111328"/>
      <use xlink:href="#ArialMT-29" x="844.726562"/>
     </g>
    </g>
   </g>
   <g id="line2d_14">
    <path d="M 31.602769 173.975774 
L 33.982599 168.231572 
L 37.110084 161.380358 
L 40.195079 155.143673 
L 44.001556 147.954811 
L 48.507412 139.981976 
L 52.955229 132.54893 
L 58.080582 124.40748 
L 63.864288 115.659589 
L 70.288023 106.388442 
L 76.633786 97.610859 
L 83.602855 88.338439 
L 91.179359 78.630083 
L 99.34822 68.535933 
L 108.095158 58.098839 
L 117.406681 47.355592 
L 127.270052 36.337949 
L 137.673258 25.07346 
L 148.60497 13.586156 
L 160.054501 1.897097 
L 162.942234 -1 
L 162.942234 -1 
" clip-path="url(#pfcee3c1965)" style="fill: none; stroke: #028f1e; stroke-linecap: round"/>
   </g>
   <g id="line2d_15">
    <path d="M 31.693643 185.090321 
L 33.234375 181.989568 
L 35.482509 178.044446 
L 38.394726 173.515554 
L 41.232788 169.502534 
L 44.698113 164.971718 
L 48.758722 160.040168 
L 53.385867 154.793006 
L 58.55396 149.293165 
L 64.240285 143.588125 
L 70.42468 137.714412 
L 77.08922 131.700624 
L 84.217933 125.569493 
L 91.796552 119.339326 
L 99.812298 113.025038 
L 108.811505 106.225531 
L 118.207679 99.408633 
L 127.993198 92.5763 
L 138.692046 85.379426 
L 149.751235 78.2045 
L 161.681502 70.731021 
L 174.456959 63.000624 
L 175.471007 62.39817 
L 175.471007 62.39817 
" clip-path="url(#pfcee3c1965)" style="fill: none; stroke-dasharray: 3.7,1.6; stroke-dashoffset: 0; stroke: #028f1e"/>
   </g>
   <g id="line2d_16">
    <path d="M 31.888547 184.671223 
L 33.613729 181.285351 
L 35.851322 177.440931 
L 36.610431 176.105047 
L 39.277872 169.196636 
L 42.358039 161.829985 
L 46.009052 153.687487 
L 49.969652 145.39319 
L 54.444039 136.538425 
L 59.413815 127.204117 
L 64.866235 117.444762 
L 70.791754 107.299543 
L 76.984212 97.13593 
L 84.122307 87.661102 
L 91.692758 77.984856 
L 99.686549 68.125427 
L 108.262388 57.902701 
L 117.406681 47.355592 
L 126.943049 36.697722 
L 137.026417 25.763995 
L 147.645177 14.581409 
L 158.78836 3.17366 
L 162.942126 -1 
L 162.942126 -1 
" clip-path="url(#pfcee3c1965)" style="fill: none; stroke-dasharray: 2,3.3; stroke-dashoffset: 0; stroke: #000000; stroke-width: 2"/>
   </g>
   <g id="line2d_17">
    <path d="M 76.916954 191.49387 
L 76.916954 19.49505 
" clip-path="url(#pfcee3c1965)" style="fill: none; stroke-dasharray: 3.7,1.6; stroke-dashoffset: 0; stroke: #000000; stroke-opacity: 0.5"/>
   </g>
   <g id="line2d_18">
    <path d="M 36.502822 191.49387 
L 36.502822 19.49505 
" clip-path="url(#pfcee3c1965)" style="fill: none; stroke-dasharray: 3.7,1.6; stroke-dashoffset: 0; stroke: #000000; stroke-opacity: 0.5"/>
   </g>
   <g id="patch_3">
    <path d="M 32.012363 191.49387 
L 32.012363 19.49505 
" style="fill: none; stroke: #cccccc; stroke-linejoin: miter; stroke-linecap: square"/>
   </g>
   <g id="patch_4">
    <path d="M 175.344712 191.49387 
L 175.344712 19.49505 
" style="fill: none; stroke: #cccccc; stroke-linejoin: miter; stroke-linecap: square"/>
   </g>
   <g id="patch_5">
    <path d="M 32.012363 191.49387 
L 175.344712 191.49387 
" style="fill: none; stroke: #cccccc; stroke-linejoin: miter; stroke-linecap: square"/>
   </g>
   <g id="patch_6">
    <path d="M 32.012363 19.49505 
L 175.344712 19.49505 
" style="fill: none; stroke: #cccccc; stroke-linejoin: miter; stroke-linecap: square"/>
   </g>
   <g id="text_16">
    <!-- EXAMPLE_ROCK_1 -->
    <g style="fill: #262626" transform="translate(63.581512 13.49505)scale(0.0864 -0.0864)">
     <defs>
      <path id="ArialMT-45" d="M 506 0 
L 506 4581 
L 3819 4581 
L 3819 4041 
L 1113 4041 
L 1113 2638 
L 3647 2638 
L 3647 2100 
L 1113 2100 
L 1113 541 
L 3925 541 
L 3925 0 
L 506 0 
z
" transform="scale(0.015625)"/>
      <path id="ArialMT-58" d="M 28 0 
L 1800 2388 
L 238 4581 
L 959 4581 
L 1791 3406 
Q 2050 3041 2159 2844 
Q 2313 3094 2522 3366 
L 3444 4581 
L 4103 4581 
L 2494 2422 
L 4228 0 
L 3478 0 
L 2325 1634 
Q 2228 1775 2125 1941 
Q 1972 1691 1906 1597 
L 756 0 
L 28 0 
z
" transform="scale(0.015625)"/>
      <path id="ArialMT-41" d="M -9 0 
L 1750 4581 
L 2403 4581 
L 4278 0 
L 3588 0 
L 3053 1388 
L 1138 1388 
L 634 0 
L -9 0 
z
M 1313 1881 
L 2866 1881 
L 2388 3150 
Q 2169 3728 2063 4100 
Q 1975 3659 1816 3225 
L 1313 1881 
z
" transform="scale(0.015625)"/>
      <path id="ArialMT-4c" d="M 469 0 
L 469 4581 
L 1075 4581 
L 1075 541 
L 3331 541 
L 3331 0 
L 469 0 
z
" transform="scale(0.015625)"/>
      <path id="ArialMT-5f" d="M -97 -1272 
L -97 -866 
L 3631 -866 
L 3631 -1272 
L -97 -1272 
z
" transform="scale(0.015625)"/>
      <path id="ArialMT-52" d="M 503 0 
L 503 4581 
L 2534 4581 
Q 3147 4581 3465 4457 
Q 3784 4334 3975 4021 
Q 4166 3709 4166 3331 
Q 4166 2844 3850 2509 
Q 3534 2175 2875 2084 
Q 3116 1969 3241 1856 
Q 3506 1613 3744 1247 
L 4541 0 
L 3778 0 
L 3172 953 
Q 2906 1366 2734 1584 
Q 2563 1803 2427 1890 
Q 2291 1978 2150 2013 
Q 2047 2034 1813 2034 
L 1109 2034 
L 1109 0 
L 503 0 
z
M 1109 2559 
L 2413 2559 
Q 2828 2559 3062 2645 
Q 3297 2731 3419 2920 
Q 3541 3109 3541 3331 
Q 3541 3656 3305 3865 
Q 3069 4075 2559 4075 
L 1109 4075 
L 1109 2559 
z
" transform="scale(0.015625)"/>
      <path id="ArialMT-4f" d="M 309 2231 
Q 309 3372 921 4017 
Q 1534 4663 2503 4663 
Q 3138 4663 3647 4359 
Q 4156 4056 4423 3514 
Q 4691 2972 4691 2284 
Q 4691 1588 4409 1038 
Q 4128 488 3612 205 
Q 3097 -78 2500 -78 
Q 1853 -78 1343 234 
Q 834 547 571 1087 
Q 309 1628 309 2231 
z
M 934 2222 
Q 934 1394 1379 917 
Q 1825 441 2497 441 
Q 3181 441 3623 922 
Q 4066 1403 4066 2288 
Q 4066 2847 3877 3264 
Q 3688 3681 3323 3911 
Q 2959 4141 2506 4141 
Q 1863 4141 1398 3698 
Q 934 3256 934 2222 
z
" transform="scale(0.015625)"/>
      <path id="ArialMT-43" d="M 3763 1606 
L 4369 1453 
Q 4178 706 3683 314 
Q 3188 -78 2472 -78 
Q 1731 -78 1267 223 
Q 803 525 561 1097 
Q 319 1669 319 2325 
Q 319 3041 592 3573 
Q 866 4106 1370 4382 
Q 1875 4659 2481 4659 
Q 3169 4659 3637 4309 
Q 4106 3959 4291 3325 
L 3694 3184 
Q 3534 3684 3231 3912 
Q 2928 4141 2469 4141 
Q 1941 4141 1586 3887 
Q 1231 3634 1087 3207 
Q 944 2781 944 2328 
Q 944 1744 1114 1308 
Q 1284 872 1643 656 
Q 2003 441 2422 441 
Q 2931 441 3284 734 
Q 3638 1028 3763 1606 
z
" transform="scale(0.015625)"/>
      <path id="ArialMT-4b" d="M 469 0 
L 469 4581 
L 1075 4581 
L 1075 2309 
L 3350 4581 
L 4172 4581 
L 2250 2725 
L 4256 0 
L 3456 0 
L 1825 2319 
L 1075 1588 
L 1075 0 
L 469 0 
z
" transform="scale(0.015625)"/>
     </defs>
     <use xlink:href="#ArialMT-45"/>
     <use xlink:href="#ArialMT-58" x="66.699219"/>
     <use xlink:href="#ArialMT-41" x="133.398438"/>
     <use xlink:href="#ArialMT-4d" x="200.097656"/>
     <use xlink:href="#ArialMT-50" x="283.398438"/>
     <use xlink:href="#ArialMT-4c" x="350.097656"/>
     <use xlink:href="#ArialMT-45" x="405.712891"/>
     <use xlink:href="#ArialMT-5f" x="472.412109"/>
     <use xlink:href="#ArialMT-52" x="528.027344"/>
     <use xlink:href="#ArialMT-4f" x="600.244141"/>
     <use xlink:href="#ArialMT-43" x="678.027344"/>
     <use xlink:href="#ArialMT-4b" x="750.244141"/>
     <use xlink:href="#ArialMT-5f" x="816.943359"/>
     <use xlink:href="#ArialMT-31" x="872.558594"/>
    </g>
   </g>
   <g id="legend_1">
    <g id="patch_7">
     <path d="M 37.556363 59.440312 
L 111.458625 59.440312 
Q 113.042625 59.440312 113.042625 57.856312 
L 113.042625 25.03905 
Q 113.042625 23.45505 111.458625 23.45505 
L 37.556363 23.45505 
Q 35.972363 23.45505 35.972363 25.03905 
L 35.972363 57.856312 
Q 35.972363 59.440312 37.556363 59.440312 
z
" style="fill: #ffffff; opacity: 0.8; stroke: #cccccc; stroke-width: 0.8; stroke-linejoin: miter"/>
    </g>
    <g id="line2d_19">
     <path d="M 39.140363 29.520037 
L 47.060363 29.520037 
L 54.980363 29.520037 
" style="fill: none; stroke: #028f1e; stroke-linecap: round"/>
    </g>
    <g id="text_17">
     <!-- D = 0 -->
     <g style="fill: #262626" transform="translate(61.316363 32.292037)scale(0.0792 -0.0792)">
      <defs>
       <path id="ArialMT-44" d="M 494 0 
L 494 4581 
L 2072 4581 
Q 2606 4581 2888 4516 
Q 3281 4425 3559 4188 
Q 3922 3881 4101 3404 
Q 4281 2928 4281 2316 
Q 4281 1794 4159 1391 
Q 4038 988 3847 723 
Q 3656 459 3429 307 
Q 3203 156 2883 78 
Q 2563 0 2147 0 
L 494 0 
z
M 1100 541 
L 2078 541 
Q 2531 541 2789 625 
Q 3047 709 3200 863 
Q 3416 1078 3536 1442 
Q 3656 1806 3656 2325 
Q 3656 3044 3420 3430 
Q 3184 3816 2847 3947 
Q 2603 4041 2063 4041 
L 1100 4041 
L 1100 541 
z
" transform="scale(0.015625)"/>
       <path id="ArialMT-3d" d="M 3381 2694 
L 356 2694 
L 356 3219 
L 3381 3219 
L 3381 2694 
z
M 3381 1303 
L 356 1303 
L 356 1828 
L 3381 1828 
L 3381 1303 
z
" transform="scale(0.015625)"/>
      </defs>
      <use xlink:href="#ArialMT-44"/>
      <use xlink:href="#ArialMT-20" x="72.216797"/>
      <use xlink:href="#ArialMT-3d" x="100"/>
      <use xlink:href="#ArialMT-20" x="158.398438"/>
      <use xlink:href="#ArialMT-30" x="186.181641"/>
     </g>
    </g>
    <g id="line2d_20">
     <path d="M 39.140363 40.723125 
L 47.060363 40.723125 
L 54.980363 40.723125 
" style="fill: none; stroke-dasharray: 3.7,1.6; stroke-dashoffset: 0; stroke: #028f1e"/>
    </g>
    <g id="text_18">
     <!-- D = 1 -->
     <g style="fill: #262626" transform="translate(61.316363 43.495125)scale(0.0792 -0.0792)">
      <use xlink:href="#ArialMT-44"/>
      <use xlink:href="#ArialMT-20" x="72.216797"/>
      <use xlink:href="#ArialMT-3d" x="100"/>
      <use xlink:href="#ArialMT-20" x="158.398438"/>
      <use xlink:href="#ArialMT-31" x="186.181641"/>
     </g>
    </g>
    <g id="line2d_21">
     <path d="M 39.140363 51.926212 
L 47.060363 51.926212 
L 54.980363 51.926212 
" style="fill: none; stroke-dasharray: 2,3.3; stroke-dashoffset: 0; stroke: #000000; stroke-width: 2"/>
    </g>
    <g id="text_19">
     <!-- Transitional D -->
     <g style="fill: #262626" transform="translate(61.316363 54.698212)scale(0.0792 -0.0792)">
      <defs>
       <path id="ArialMT-54" d="M 1659 0 
L 1659 4041 
L 150 4041 
L 150 4581 
L 3781 4581 
L 3781 4041 
L 2266 4041 
L 2266 0 
L 1659 0 
z
" transform="scale(0.015625)"/>
       <path id="ArialMT-6e" d="M 422 0 
L 422 3319 
L 928 3319 
L 928 2847 
Q 1294 3394 1984 3394 
Q 2284 3394 2536 3286 
Q 2788 3178 2913 3003 
Q 3038 2828 3088 2588 
Q 3119 2431 3119 2041 
L 3119 0 
L 2556 0 
L 2556 2019 
Q 2556 2363 2490 2533 
Q 2425 2703 2258 2804 
Q 2091 2906 1866 2906 
Q 1506 2906 1245 2678 
Q 984 2450 984 1813 
L 984 0 
L 422 0 
z
" transform="scale(0.015625)"/>
       <path id="ArialMT-69" d="M 425 3934 
L 425 4581 
L 988 4581 
L 988 3934 
L 425 3934 
z
M 425 0 
L 425 3319 
L 988 3319 
L 988 0 
L 425 0 
z
" transform="scale(0.015625)"/>
      </defs>
      <use xlink:href="#ArialMT-54"/>
      <use xlink:href="#ArialMT-72" x="57.333984"/>
      <use xlink:href="#ArialMT-61" x="90.634766"/>
      <use xlink:href="#ArialMT-6e" x="146.25"/>
      <use xlink:href="#ArialMT-73" x="201.865234"/>
      <use xlink:href="#ArialMT-69" x="251.865234"/>
      <use xlink:href="#ArialMT-74" x="274.082031"/>
      <use xlink:href="#ArialMT-69" x="301.865234"/>
      <use xlink:href="#ArialMT-6f" x="324.082031"/>
      <use xlink:href="#ArialMT-6e" x="379.697266"/>
      <use xlink:href="#ArialMT-61" x="435.3125"/>
      <use xlink:href="#ArialMT-6c" x="490.927734"/>
      <use xlink:href="#ArialMT-20" x="513.144531"/>
      <use xlink:href="#ArialMT-44" x="540.927734"/>
     </g>
    </g>
   </g>
   <g id="text_20">
    <!-- UDL:  -->
    <g style="opacity: 0.5" transform="translate(78.350278 181.178205)scale(0.08 -0.08)">
     <defs>
      <path id="Arial-BoldMT-55" d="M 459 4581 
L 1384 4581 
L 1384 2100 
Q 1384 1509 1419 1334 
Q 1478 1053 1701 883 
Q 1925 713 2313 713 
Q 2706 713 2906 873 
Q 3106 1034 3147 1268 
Q 3188 1503 3188 2047 
L 3188 4581 
L 4113 4581 
L 4113 2175 
Q 4113 1350 4038 1009 
Q 3963 669 3761 434 
Q 3559 200 3221 61 
Q 2884 -78 2341 -78 
Q 1684 -78 1345 73 
Q 1006 225 809 467 
Q 613 709 550 975 
Q 459 1369 459 2138 
L 459 4581 
z
" transform="scale(0.015625)"/>
      <path id="Arial-BoldMT-44" d="M 463 4581 
L 2153 4581 
Q 2725 4581 3025 4494 
Q 3428 4375 3715 4072 
Q 4003 3769 4153 3330 
Q 4303 2891 4303 2247 
Q 4303 1681 4163 1272 
Q 3991 772 3672 463 
Q 3431 228 3022 97 
Q 2716 0 2203 0 
L 463 0 
L 463 4581 
z
M 1388 3806 
L 1388 772 
L 2078 772 
Q 2466 772 2638 816 
Q 2863 872 3011 1006 
Q 3159 1141 3253 1448 
Q 3347 1756 3347 2288 
Q 3347 2819 3253 3103 
Q 3159 3388 2990 3547 
Q 2822 3706 2563 3763 
Q 2369 3806 1803 3806 
L 1388 3806 
z
" transform="scale(0.015625)"/>
      <path id="Arial-BoldMT-4c" d="M 491 0 
L 491 4544 
L 1416 4544 
L 1416 772 
L 3716 772 
L 3716 0 
L 491 0 
z
" transform="scale(0.015625)"/>
      <path id="Arial-BoldMT-3a" d="M 628 2441 
L 628 3319 
L 1506 3319 
L 1506 2441 
L 628 2441 
z
M 628 0 
L 628 878 
L 1506 878 
L 1506 0 
L 628 0 
z
" transform="scale(0.015625)"/>
      <path id="Arial-BoldMT-20" transform="scale(0.015625)"/>
     </defs>
     <use xlink:href="#Arial-BoldMT-55"/>
     <use xlink:href="#Arial-BoldMT-44" x="72.216797"/>
     <use xlink:href="#Arial-BoldMT-4c" x="144.433594"/>
     <use xlink:href="#Arial-BoldMT-3a" x="205.517578"/>
     <use xlink:href="#Arial-BoldMT-20" x="238.818359"/>
    </g>
    <!-- 150 m -->
    <g style="opacity: 0.5" transform="translate(78.350278 189.628455)scale(0.08 -0.08)">
     <defs>
      <path id="Arial-BoldMT-31" d="M 2519 0 
L 1641 0 
L 1641 3309 
Q 1159 2859 506 2644 
L 506 3441 
Q 850 3553 1253 3867 
Q 1656 4181 1806 4600 
L 2519 4600 
L 2519 0 
z
" transform="scale(0.015625)"/>
      <path id="Arial-BoldMT-35" d="M 284 1178 
L 1159 1269 
Q 1197 972 1381 798 
Q 1566 625 1806 625 
Q 2081 625 2272 848 
Q 2463 1072 2463 1522 
Q 2463 1944 2273 2155 
Q 2084 2366 1781 2366 
Q 1403 2366 1103 2031 
L 391 2134 
L 841 4519 
L 3163 4519 
L 3163 3697 
L 1506 3697 
L 1369 2919 
Q 1663 3066 1969 3066 
Q 2553 3066 2959 2641 
Q 3366 2216 3366 1538 
Q 3366 972 3038 528 
Q 2591 -78 1797 -78 
Q 1163 -78 763 262 
Q 363 603 284 1178 
z
" transform="scale(0.015625)"/>
      <path id="Arial-BoldMT-30" d="M 1756 4600 
Q 2422 4600 2797 4125 
Q 3244 3563 3244 2259 
Q 3244 959 2794 391 
Q 2422 -78 1756 -78 
Q 1088 -78 678 436 
Q 269 950 269 2269 
Q 269 3563 719 4131 
Q 1091 4600 1756 4600 
z
M 1756 3872 
Q 1597 3872 1472 3770 
Q 1347 3669 1278 3406 
Q 1188 3066 1188 2259 
Q 1188 1453 1269 1151 
Q 1350 850 1473 750 
Q 1597 650 1756 650 
Q 1916 650 2041 751 
Q 2166 853 2234 1116 
Q 2325 1453 2325 2259 
Q 2325 3066 2244 3367 
Q 2163 3669 2039 3770 
Q 1916 3872 1756 3872 
z
" transform="scale(0.015625)"/>
      <path id="Arial-BoldMT-6d" d="M 394 3319 
L 1203 3319 
L 1203 2866 
Q 1638 3394 2238 3394 
Q 2556 3394 2790 3262 
Q 3025 3131 3175 2866 
Q 3394 3131 3647 3262 
Q 3900 3394 4188 3394 
Q 4553 3394 4806 3245 
Q 5059 3097 5184 2809 
Q 5275 2597 5275 2122 
L 5275 0 
L 4397 0 
L 4397 1897 
Q 4397 2391 4306 2534 
Q 4184 2722 3931 2722 
Q 3747 2722 3584 2609 
Q 3422 2497 3350 2280 
Q 3278 2063 3278 1594 
L 3278 0 
L 2400 0 
L 2400 1819 
Q 2400 2303 2353 2443 
Q 2306 2584 2207 2653 
Q 2109 2722 1941 2722 
Q 1738 2722 1575 2612 
Q 1413 2503 1342 2297 
Q 1272 2091 1272 1613 
L 1272 0 
L 394 0 
L 394 3319 
z
" transform="scale(0.015625)"/>
     </defs>
     <use xlink:href="#Arial-BoldMT-31"/>
     <use xlink:href="#Arial-BoldMT-35" x="55.615234"/>
     <use xlink:href="#Arial-BoldMT-30" x="111.230469"/>
     <use xlink:href="#Arial-BoldMT-20" x="166.845703"/>
     <use xlink:href="#Arial-BoldMT-6d" x="194.628906"/>
    </g>
   </g>
   <g id="text_21">
    <!-- FDL: 15 m -->
    <g style="opacity: 0.5" transform="translate(37.936145 189.628455)scale(0.08 -0.08)">
     <defs>
      <path id="Arial-BoldMT-46" d="M 472 0 
L 472 4581 
L 3613 4581 
L 3613 3806 
L 1397 3806 
L 1397 2722 
L 3309 2722 
L 3309 1947 
L 1397 1947 
L 1397 0 
L 472 0 
z
" transform="scale(0.015625)"/>
     </defs>
     <use xlink:href="#Arial-BoldMT-46"/>
     <use xlink:href="#Arial-BoldMT-44" x="61.083984"/>
     <use xlink:href="#Arial-BoldMT-4c" x="133.300781"/>
     <use xlink:href="#Arial-BoldMT-3a" x="194.384766"/>
     <use xlink:href="#Arial-BoldMT-20" x="227.685547"/>
     <use xlink:href="#Arial-BoldMT-31" x="255.46875"/>
     <use xlink:href="#Arial-BoldMT-35" x="311.083984"/>
     <use xlink:href="#Arial-BoldMT-20" x="366.699219"/>
     <use xlink:href="#Arial-BoldMT-6d" x="394.482422"/>
    </g>
   </g>
  </g>
  <g id="axes_2">
   <g id="patch_8">
    <path d="M 210.824663 191.49387 
L 354.157012 191.49387 
L 354.157012 19.49505 
L 210.824663 19.49505 
z
" style="fill: #ffffff"/>
   </g>
   <g id="matplotlib.axis_3">
    <g id="xtick_7">
     <g id="line2d_22">
      <path d="M 210.824663 191.49387 
L 210.824663 19.49505 
" clip-path="url(#pe429daba5b)" style="fill: none; stroke: #cccccc; stroke-width: 0.8; stroke-linecap: round"/>
     </g>
     <g id="text_22">
      <!-- 0 -->
      <g style="fill: #262626" transform="translate(208.622531 205.462857)scale(0.0792 -0.0792)">
       <use xlink:href="#ArialMT-30"/>
      </g>
     </g>
    </g>
    <g id="xtick_8">
     <g id="line2d_23">
      <path d="M 239.491133 191.49387 
L 239.491133 19.49505 
" clip-path="url(#pe429daba5b)" style="fill: none; stroke: #cccccc; stroke-width: 0.8; stroke-linecap: round"/>
     </g>
     <g id="text_23">
      <!-- 1 -->
      <g style="fill: #262626" transform="translate(237.289001 205.462857)scale(0.0792 -0.0792)">
       <use xlink:href="#ArialMT-31"/>
      </g>
     </g>
    </g>
    <g id="xtick_9">
     <g id="line2d_24">
      <path d="M 268.157602 191.49387 
L 268.157602 19.49505 
" clip-path="url(#pe429daba5b)" style="fill: none; stroke: #cccccc; stroke-width: 0.8; stroke-linecap: round"/>
     </g>
     <g id="text_24">
      <!-- 2 -->
      <g style="fill: #262626" transform="translate(265.955471 205.462857)scale(0.0792 -0.0792)">
       <use xlink:href="#ArialMT-32"/>
      </g>
     </g>
    </g>
    <g id="xtick_10">
     <g id="line2d_25">
      <path d="M 296.824072 191.49387 
L 296.824072 19.49505 
" clip-path="url(#pe429daba5b)" style="fill: none; stroke: #cccccc; stroke-width: 0.8; stroke-linecap: round"/>
     </g>
     <g id="text_25">
      <!-- 3 -->
      <g style="fill: #262626" transform="translate(294.621941 205.462857)scale(0.0792 -0.0792)">
       <use xlink:href="#ArialMT-33"/>
      </g>
     </g>
    </g>
    <g id="xtick_11">
     <g id="line2d_26">
      <path d="M 325.490542 191.49387 
L 325.490542 19.49505 
" clip-path="url(#pe429daba5b)" style="fill: none; stroke: #cccccc; stroke-width: 0.8; stroke-linecap: round"/>
     </g>
     <g id="text_26">
      <!-- 4 -->
      <g style="fill: #262626" transform="translate(323.288411 205.462857)scale(0.0792 -0.0792)">
       <use xlink:href="#ArialMT-34"/>
      </g>
     </g>
    </g>
    <g id="xtick_12">
     <g id="line2d_27">
      <path d="M 354.157012 191.49387 
L 354.157012 19.49505 
" clip-path="url(#pe429daba5b)" style="fill: none; stroke: #cccccc; stroke-width: 0.8; stroke-linecap: round"/>
     </g>
     <g id="text_27">
      <!-- 5 -->
      <g style="fill: #262626" transform="translate(351.954881 205.462857)scale(0.0792 -0.0792)">
       <use xlink:href="#ArialMT-35"/>
      </g>
     </g>
    </g>
    <g id="text_28">
     <!-- Normal Stress (MPa) -->
     <g style="fill: #262626" transform="translate(242.167687 217.326607)scale(0.0864 -0.0864)">
      <use xlink:href="#ArialMT-4e"/>
      <use xlink:href="#ArialMT-6f" x="72.216797"/>
      <use xlink:href="#ArialMT-72" x="127.832031"/>
      <use xlink:href="#ArialMT-6d" x="161.132812"/>
      <use xlink:href="#ArialMT-61" x="244.433594"/>
      <use xlink:href="#ArialMT-6c" x="300.048828"/>
      <use xlink:href="#ArialMT-20" x="322.265625"/>
      <use xlink:href="#ArialMT-53" x="350.048828"/>
      <use xlink:href="#ArialMT-74" x="416.748047"/>
      <use xlink:href="#ArialMT-72" x="444.53125"/>
      <use xlink:href="#ArialMT-65" x="477.832031"/>
      <use xlink:href="#ArialMT-73" x="533.447266"/>
      <use xlink:href="#ArialMT-73" x="583.447266"/>
      <use xlink:href="#ArialMT-20" x="633.447266"/>
      <use xlink:href="#ArialMT-28" x="661.230469"/>
      <use xlink:href="#ArialMT-4d" x="694.53125"/>
      <use xlink:href="#ArialMT-50" x="777.832031"/>
      <use xlink:href="#ArialMT-61" x="844.53125"/>
      <use xlink:href="#ArialMT-29" x="900.146484"/>
     </g>
    </g>
   </g>
   <g id="matplotlib.axis_4">
    <g id="ytick_8">
     <g id="line2d_28">
      <path d="M 210.824663 191.49387 
L 354.157012 191.49387 
" clip-path="url(#pe429daba5b)" style="fill: none; stroke: #cccccc; stroke-width: 0.8; stroke-linecap: round"/>
     </g>
     <g id="text_29">
      <!-- 0 -->
      <g style="fill: #262626" transform="translate(198.1204 194.328364)scale(0.0792 -0.0792)">
       <use xlink:href="#ArialMT-30"/>
      </g>
     </g>
    </g>
    <g id="ytick_9">
     <g id="line2d_29">
      <path d="M 210.824663 162.8274 
L 354.157012 162.8274 
" clip-path="url(#pe429daba5b)" style="fill: none; stroke: #cccccc; stroke-width: 0.8; stroke-linecap: round"/>
     </g>
     <g id="text_30">
      <!-- 1 -->
      <g style="fill: #262626" transform="translate(198.1204 165.661894)scale(0.0792 -0.0792)">
       <use xlink:href="#ArialMT-31"/>
      </g>
     </g>
    </g>
    <g id="ytick_10">
     <g id="line2d_30">
      <path d="M 210.824663 134.16093 
L 354.157012 134.16093 
" clip-path="url(#pe429daba5b)" style="fill: none; stroke: #cccccc; stroke-width: 0.8; stroke-linecap: round"/>
     </g>
     <g id="text_31">
      <!-- 2 -->
      <g style="fill: #262626" transform="translate(198.1204 136.995424)scale(0.0792 -0.0792)">
       <use xlink:href="#ArialMT-32"/>
      </g>
     </g>
    </g>
    <g id="ytick_11">
     <g id="line2d_31">
      <path d="M 210.824663 105.49446 
L 354.157012 105.49446 
" clip-path="url(#pe429daba5b)" style="fill: none; stroke: #cccccc; stroke-width: 0.8; stroke-linecap: round"/>
     </g>
     <g id="text_32">
      <!-- 3 -->
      <g style="fill: #262626" transform="translate(198.1204 108.328954)scale(0.0792 -0.0792)">
       <use xlink:href="#ArialMT-33"/>
      </g>
     </g>
    </g>
    <g id="ytick_12">
     <g id="line2d_32">
      <path d="M 210.824663 76.82799 
L 354.157012 76.82799 
" clip-path="url(#pe429daba5b)" style="fill: none; stroke: #cccccc; stroke-width: 0.8; stroke-linecap: round"/>
     </g>
     <g id="text_33">
      <!-- 4 -->
      <g style="fill: #262626" transform="translate(198.1204 79.662484)scale(0.0792 -0.0792)">
       <use xlink:href="#ArialMT-34"/>
      </g>
     </g>
    </g>
    <g id="ytick_13">
     <g id="line2d_33">
      <path d="M 210.824663 48.16152 
L 354.157012 48.16152 
" clip-path="url(#pe429daba5b)" style="fill: none; stroke: #cccccc; stroke-width: 0.8; stroke-linecap: round"/>
     </g>
     <g id="text_34">
      <!-- 5 -->
      <g style="fill: #262626" transform="translate(198.1204 50.996014)scale(0.0792 -0.0792)">
       <use xlink:href="#ArialMT-35"/>
      </g>
     </g>
    </g>
    <g id="ytick_14">
     <g id="line2d_34">
      <path d="M 210.824663 19.49505 
L 354.157012 19.49505 
" clip-path="url(#pe429daba5b)" style="fill: none; stroke: #cccccc; stroke-width: 0.8; stroke-linecap: round"/>
     </g>
     <g id="text_35">
      <!-- 6 -->
      <g style="fill: #262626" transform="translate(198.1204 22.329544)scale(0.0792 -0.0792)">
       <use xlink:href="#ArialMT-36"/>
      </g>
     </g>
    </g>
    <g id="text_36">
     <!-- Shear Stress (MPa) -->
     <g style="fill: #262626" transform="translate(192.30195 143.423385)rotate(-90)scale(0.0864 -0.0864)">
      <use xlink:href="#ArialMT-53"/>
      <use xlink:href="#ArialMT-68" x="66.699219"/>
      <use xlink:href="#ArialMT-65" x="122.314453"/>
      <use xlink:href="#ArialMT-61" x="177.929688"/>
      <use xlink:href="#ArialMT-72" x="233.544922"/>
      <use xlink:href="#ArialMT-20" x="266.845703"/>
      <use xlink:href="#ArialMT-53" x="294.628906"/>
      <use xlink:href="#ArialMT-74" x="361.328125"/>
      <use xlink:href="#ArialMT-72" x="389.111328"/>
      <use xlink:href="#ArialMT-65" x="422.412109"/>
      <use xlink:href="#ArialMT-73" x="478.027344"/>
      <use xlink:href="#ArialMT-73" x="528.027344"/>
      <use xlink:href="#ArialMT-20" x="578.027344"/>
      <use xlink:href="#ArialMT-28" x="605.810547"/>
      <use xlink:href="#ArialMT-4d" x="639.111328"/>
      <use xlink:href="#ArialMT-50" x="722.412109"/>
      <use xlink:href="#ArialMT-61" x="789.111328"/>
      <use xlink:href="#ArialMT-29" x="844.726562"/>
     </g>
    </g>
   </g>
   <g id="line2d_35">
    <path d="M 210.989331 188.825321 
L 212.548987 185.067157 
L 214.061335 182.080809 
L 216.271334 178.245887 
L 219.138464 173.812722 
L 222.626759 168.933658 
L 226.032152 164.541571 
L 230.030537 159.724292 
L 234.595239 154.565855 
L 239.702354 149.129507 
L 245.330544 143.463615 
L 251.460782 137.605798 
L 258.076072 131.585797 
L 265.161206 125.427464 
L 273.277382 118.682203 
L 281.818047 111.886703 
L 290.773955 105.04588 
L 300.682949 97.770416 
L 310.974439 90.497679 
L 321.643045 83.225375 
L 333.205695 75.613966 
L 345.635985 67.708923 
L 354.336306 62.329772 
L 354.336306 62.329772 
" clip-path="url(#pe429daba5b)" style="fill: none; stroke: #f97306; stroke-linecap: round"/>
   </g>
   <g id="line2d_36">
    <path d="M 211.071744 190.563613 
L 212.449232 188.692375 
L 214.328073 186.786372 
L 216.658207 184.823555 
L 219.403581 182.81822 
L 223.047701 180.470728 
L 227.020747 178.182298 
L 231.787739 175.695541 
L 237.298736 173.075798 
L 243.517289 170.363992 
L 250.841688 167.421884 
L 258.805533 164.462023 
L 267.802463 161.353303 
L 277.799097 158.132175 
L 289.157826 154.711422 
L 301.457177 151.240393 
L 315.058924 147.632744 
L 329.936296 143.916193 
L 346.432218 140.028259 
L 354.417993 138.222106 
L 354.417993 138.222106 
" clip-path="url(#pe429daba5b)" style="fill: none; stroke-dasharray: 3.7,1.6; stroke-dashoffset: 0; stroke: #f97306"/>
   </g>
   <g id="line2d_37">
    <path d="M 210.687951 191.434141 
L 211.071744 190.563613 
L 211.950267 189.290776 
L 213.25097 187.827117 
L 215.073041 186.123572 
L 217.49784 184.182167 
L 219.881205 182.279738 
L 227.078928 173.176883 
L 233.433953 165.511118 
L 240.315914 157.564246 
L 247.721767 149.355078 
L 255.799549 140.737257 
L 264.536093 131.747148 
L 273.918815 122.415589 
L 283.93582 112.769171 
L 294.575923 102.831109 
L 298.495053 99.352461 
L 308.551456 92.185945 
L 319.256312 84.830425 
L 330.592657 77.311187 
L 342.674188 69.568159 
L 354.20895 62.407657 
L 354.20895 62.407657 
" clip-path="url(#pe429daba5b)" style="fill: none; stroke-dasharray: 2,3.3; stroke-dashoffset: 0; stroke: #000000; stroke-width: 2"/>
   </g>
   <g id="line2d_38">
    <path d="M 297.899065 191.49387 
L 297.899065 19.49505 
" clip-path="url(#pe429daba5b)" style="fill: none; stroke-dasharray: 3.7,1.6; stroke-dashoffset: 0; stroke: #000000; stroke-opacity: 0.5"/>
   </g>
   <g id="line2d_39">
    <path d="M 219.532103 191.49387 
L 219.532103 19.49505 
" clip-path="url(#pe429daba5b)" style="fill: none; stroke-dasharray: 3.7,1.6; stroke-dashoffset: 0; stroke: #000000; stroke-opacity: 0.5"/>
   </g>
   <g id="patch_9">
    <path d="M 210.824663 191.49387 
L 210.824663 19.49505 
" style="fill: none; stroke: #cccccc; stroke-linejoin: miter; stroke-linecap: square"/>
   </g>
   <g id="patch_10">
    <path d="M 354.157012 191.49387 
L 354.157012 19.49505 
" style="fill: none; stroke: #cccccc; stroke-linejoin: miter; stroke-linecap: square"/>
   </g>
   <g id="patch_11">
    <path d="M 210.824663 191.49387 
L 354.157012 191.49387 
" style="fill: none; stroke: #cccccc; stroke-linejoin: miter; stroke-linecap: square"/>
   </g>
   <g id="patch_12">
    <path d="M 210.824663 19.49505 
L 354.157012 19.49505 
" style="fill: none; stroke: #cccccc; stroke-linejoin: miter; stroke-linecap: square"/>
   </g>
   <g id="text_37">
    <!-- EXAMPLE_ROCK_2 -->
    <g style="fill: #262626" transform="translate(242.393812 13.49505)scale(0.0864 -0.0864)">
     <use xlink:href="#ArialMT-45"/>
     <use xlink:href="#ArialMT-58" x="66.699219"/>
     <use xlink:href="#ArialMT-41" x="133.398438"/>
     <use xlink:href="#ArialMT-4d" x="200.097656"/>
     <use xlink:href="#ArialMT-50" x="283.398438"/>
     <use xlink:href="#ArialMT-4c" x="350.097656"/>
     <use xlink:href="#ArialMT-45" x="405.712891"/>
     <use xlink:href="#ArialMT-5f" x="472.412109"/>
     <use xlink:href="#ArialMT-52" x="528.027344"/>
     <use xlink:href="#ArialMT-4f" x="600.244141"/>
     <use xlink:href="#ArialMT-43" x="678.027344"/>
     <use xlink:href="#ArialMT-4b" x="750.244141"/>
     <use xlink:href="#ArialMT-5f" x="816.943359"/>
     <use xlink:href="#ArialMT-32" x="872.558594"/>
    </g>
   </g>
   <g id="legend_2">
    <g id="patch_13">
     <path d="M 216.368663 59.440312 
L 290.270925 59.440312 
Q 291.854925 59.440312 291.854925 57.856312 
L 291.854925 25.03905 
Q 291.854925 23.45505 290.270925 23.45505 
L 216.368663 23.45505 
Q 214.784663 23.45505 214.784663 25.03905 
L 214.784663 57.856312 
Q 214.784663 59.440312 216.368663 59.440312 
z
" style="fill: #ffffff; opacity: 0.8; stroke: #cccccc; stroke-width: 0.8; stroke-linejoin: miter"/>
    </g>
    <g id="line2d_40">
     <path d="M 217.952663 29.520037 
L 225.872663 29.520037 
L 233.792663 29.520037 
" style="fill: none; stroke: #f97306; stroke-linecap: round"/>
    </g>
    <g id="text_38">
     <!-- D = 0 -->
     <g style="fill: #262626" transform="translate(240.128663 32.292037)scale(0.0792 -0.0792)">
      <use xlink:href="#ArialMT-44"/>
      <use xlink:href="#ArialMT-20" x="72.216797"/>
      <use xlink:href="#ArialMT-3d" x="100"/>
      <use xlink:href="#ArialMT-20" x="158.398438"/>
      <use xlink:href="#ArialMT-30" x="186.181641"/>
     </g>
    </g>
    <g id="line2d_41">
     <path d="M 217.952663 40.723125 
L 225.872663 40.723125 
L 233.792663 40.723125 
" style="fill: none; stroke-dasharray: 3.7,1.6; stroke-dashoffset: 0; stroke: #f97306"/>
    </g>
    <g id="text_39">
     <!-- D = 1 -->
     <g style="fill: #262626" transform="translate(240.128663 43.495125)scale(0.0792 -0.0792)">
      <use xlink:href="#ArialMT-44"/>
      <use xlink:href="#ArialMT-20" x="72.216797"/>
      <use xlink:href="#ArialMT-3d" x="100"/>
      <use xlink:href="#ArialMT-20" x="158.398438"/>
      <use xlink:href="#ArialMT-31" x="186.181641"/>
     </g>
    </g>
    <g id="line2d_42">
     <path d="M 217.952663 51.926212 
L 225.872663 51.926212 
L 233.792663 51.926212 
" style="fill: none; stroke-dasharray: 2,3.3; stroke-dashoffset: 0; stroke: #000000; stroke-width: 2"/>
    </g>
    <g id="text_40">
     <!-- Transitional D -->
     <g style="fill: #262626" transform="translate(240.128663 54.698212)scale(0.0792 -0.0792)">
      <use xlink:href="#ArialMT-54"/>
      <use xlink:href="#ArialMT-72" x="57.333984"/>
      <use xlink:href="#ArialMT-61" x="90.634766"/>
      <use xlink:href="#ArialMT-6e" x="146.25"/>
      <use xlink:href="#ArialMT-73" x="201.865234"/>
      <use xlink:href="#ArialMT-69" x="251.865234"/>
      <use xlink:href="#ArialMT-74" x="274.082031"/>
      <use xlink:href="#ArialMT-69" x="301.865234"/>
      <use xlink:href="#ArialMT-6f" x="324.082031"/>
      <use xlink:href="#ArialMT-6e" x="379.697266"/>
      <use xlink:href="#ArialMT-61" x="435.3125"/>
      <use xlink:href="#ArialMT-6c" x="490.927734"/>
      <use xlink:href="#ArialMT-20" x="513.144531"/>
      <use xlink:href="#ArialMT-44" x="540.927734"/>
     </g>
    </g>
   </g>
   <g id="text_41">
    <!-- UDL:  -->
    <g style="opacity: 0.5" transform="translate(299.332389 181.178205)scale(0.08 -0.08)">
     <use xlink:href="#Arial-BoldMT-55"/>
     <use xlink:href="#Arial-BoldMT-44" x="72.216797"/>
     <use xlink:href="#Arial-BoldMT-4c" x="144.433594"/>
     <use xlink:href="#Arial-BoldMT-3a" x="205.517578"/>
     <use xlink:href="#Arial-BoldMT-20" x="238.818359"/>
    </g>
    <!-- 150 m -->
    <g style="opacity: 0.5" transform="translate(299.332389 189.628455)scale(0.08 -0.08)">
     <use xlink:href="#Arial-BoldMT-31"/>
     <use xlink:href="#Arial-BoldMT-35" x="55.615234"/>
     <use xlink:href="#Arial-BoldMT-30" x="111.230469"/>
     <use xlink:href="#Arial-BoldMT-20" x="166.845703"/>
     <use xlink:href="#Arial-BoldMT-6d" x="194.628906"/>
    </g>
   </g>
   <g id="text_42">
    <!-- FDL: 15 m -->
    <g style="opacity: 0.5" transform="translate(220.965426 189.628455)scale(0.08 -0.08)">
     <use xlink:href="#Arial-BoldMT-46"/>
     <use xlink:href="#Arial-BoldMT-44" x="61.083984"/>
     <use xlink:href="#Arial-BoldMT-4c" x="133.300781"/>
     <use xlink:href="#Arial-BoldMT-3a" x="194.384766"/>
     <use xlink:href="#Arial-BoldMT-20" x="227.685547"/>
     <use xlink:href="#Arial-BoldMT-31" x="255.46875"/>
     <use xlink:href="#Arial-BoldMT-35" x="311.083984"/>
     <use xlink:href="#Arial-BoldMT-20" x="366.699219"/>
     <use xlink:href="#Arial-BoldMT-6d" x="394.482422"/>
    </g>
   </g>
  </g>
  <g id="axes_3">
   <g id="patch_14">
    <path d="M 389.636963 191.49387 
L 532.969312 191.49387 
L 532.969312 19.49505 
L 389.636963 19.49505 
z
" style="fill: #ffffff"/>
   </g>
   <g id="matplotlib.axis_5">
    <g id="xtick_13">
     <g id="line2d_43">
      <path d="M 389.636963 191.49387 
L 389.636963 19.49505 
" clip-path="url(#p7157b51f3b)" style="fill: none; stroke: #cccccc; stroke-width: 0.8; stroke-linecap: round"/>
     </g>
     <g id="text_43">
      <!-- 0 -->
      <g style="fill: #262626" transform="translate(387.434831 205.462857)scale(0.0792 -0.0792)">
       <use xlink:href="#ArialMT-30"/>
      </g>
     </g>
    </g>
    <g id="xtick_14">
     <g id="line2d_44">
      <path d="M 418.303432 191.49387 
L 418.303432 19.49505 
" clip-path="url(#p7157b51f3b)" style="fill: none; stroke: #cccccc; stroke-width: 0.8; stroke-linecap: round"/>
     </g>
     <g id="text_44">
      <!-- 1 -->
      <g style="fill: #262626" transform="translate(416.101301 205.462857)scale(0.0792 -0.0792)">
       <use xlink:href="#ArialMT-31"/>
      </g>
     </g>
    </g>
    <g id="xtick_15">
     <g id="line2d_45">
      <path d="M 446.969902 191.49387 
L 446.969902 19.49505 
" clip-path="url(#p7157b51f3b)" style="fill: none; stroke: #cccccc; stroke-width: 0.8; stroke-linecap: round"/>
     </g>
     <g id="text_45">
      <!-- 2 -->
      <g style="fill: #262626" transform="translate(444.767771 205.462857)scale(0.0792 -0.0792)">
       <use xlink:href="#ArialMT-32"/>
      </g>
     </g>
    </g>
    <g id="xtick_16">
     <g id="line2d_46">
      <path d="M 475.636372 191.49387 
L 475.636372 19.49505 
" clip-path="url(#p7157b51f3b)" style="fill: none; stroke: #cccccc; stroke-width: 0.8; stroke-linecap: round"/>
     </g>
     <g id="text_46">
      <!-- 3 -->
      <g style="fill: #262626" transform="translate(473.434241 205.462857)scale(0.0792 -0.0792)">
       <use xlink:href="#ArialMT-33"/>
      </g>
     </g>
    </g>
    <g id="xtick_17">
     <g id="line2d_47">
      <path d="M 504.302842 191.49387 
L 504.302842 19.49505 
" clip-path="url(#p7157b51f3b)" style="fill: none; stroke: #cccccc; stroke-width: 0.8; stroke-linecap: round"/>
     </g>
     <g id="text_47">
      <!-- 4 -->
      <g style="fill: #262626" transform="translate(502.100711 205.462857)scale(0.0792 -0.0792)">
       <use xlink:href="#ArialMT-34"/>
      </g>
     </g>
    </g>
    <g id="xtick_18">
     <g id="line2d_48">
      <path d="M 532.969312 191.49387 
L 532.969312 19.49505 
" clip-path="url(#p7157b51f3b)" style="fill: none; stroke: #cccccc; stroke-width: 0.8; stroke-linecap: round"/>
     </g>
     <g id="text_48">
      <!-- 5 -->
      <g style="fill: #262626" transform="translate(530.767181 205.462857)scale(0.0792 -0.0792)">
       <use xlink:href="#ArialMT-35"/>
      </g>
     </g>
    </g>
    <g id="text_49">
     <!-- Normal Stress (MPa) -->
     <g style="fill: #262626" transform="translate(420.979987 217.326607)scale(0.0864 -0.0864)">
      <use xlink:href="#ArialMT-4e"/>
      <use xlink:href="#ArialMT-6f" x="72.216797"/>
      <use xlink:href="#ArialMT-72" x="127.832031"/>
      <use xlink:href="#ArialMT-6d" x="161.132812"/>
      <use xlink:href="#ArialMT-61" x="244.433594"/>
      <use xlink:href="#ArialMT-6c" x="300.048828"/>
      <use xlink:href="#ArialMT-20" x="322.265625"/>
      <use xlink:href="#ArialMT-53" x="350.048828"/>
      <use xlink:href="#ArialMT-74" x="416.748047"/>
      <use xlink:href="#ArialMT-72" x="444.53125"/>
      <use xlink:href="#ArialMT-65" x="477.832031"/>
      <use xlink:href="#ArialMT-73" x="533.447266"/>
      <use xlink:href="#ArialMT-73" x="583.447266"/>
      <use xlink:href="#ArialMT-20" x="633.447266"/>
      <use xlink:href="#ArialMT-28" x="661.230469"/>
      <use xlink:href="#ArialMT-4d" x="694.53125"/>
      <use xlink:href="#ArialMT-50" x="777.832031"/>
      <use xlink:href="#ArialMT-61" x="844.53125"/>
      <use xlink:href="#ArialMT-29" x="900.146484"/>
     </g>
    </g>
   </g>
   <g id="matplotlib.axis_6">
    <g id="ytick_15">
     <g id="line2d_49">
      <path d="M 389.636963 191.49387 
L 532.969312 191.49387 
" clip-path="url(#p7157b51f3b)" style="fill: none; stroke: #cccccc; stroke-width: 0.8; stroke-linecap: round"/>
     </g>
     <g id="text_50">
      <!-- 0 -->
      <g style="fill: #262626" transform="translate(376.9327 194.328364)scale(0.0792 -0.0792)">
       <use xlink:href="#ArialMT-30"/>
      </g>
     </g>
    </g>
    <g id="ytick_16">
     <g id="line2d_50">
      <path d="M 389.636963 162.8274 
L 532.969312 162.8274 
" clip-path="url(#p7157b51f3b)" style="fill: none; stroke: #cccccc; stroke-width: 0.8; stroke-linecap: round"/>
     </g>
     <g id="text_51">
      <!-- 1 -->
      <g style="fill: #262626" transform="translate(376.9327 165.661894)scale(0.0792 -0.0792)">
       <use xlink:href="#ArialMT-31"/>
      </g>
     </g>
    </g>
    <g id="ytick_17">
     <g id="line2d_51">
      <path d="M 389.636963 134.16093 
L 532.969312 134.16093 
" clip-path="url(#p7157b51f3b)" style="fill: none; stroke: #cccccc; stroke-width: 0.8; stroke-linecap: round"/>
     </g>
     <g id="text_52">
      <!-- 2 -->
      <g style="fill: #262626" transform="translate(376.9327 136.995424)scale(0.0792 -0.0792)">
       <use xlink:href="#ArialMT-32"/>
      </g>
     </g>
    </g>
    <g id="ytick_18">
     <g id="line2d_52">
      <path d="M 389.636963 105.49446 
L 532.969312 105.49446 
" clip-path="url(#p7157b51f3b)" style="fill: none; stroke: #cccccc; stroke-width: 0.8; stroke-linecap: round"/>
     </g>
     <g id="text_53">
      <!-- 3 -->
      <g style="fill: #262626" transform="translate(376.9327 108.328954)scale(0.0792 -0.0792)">
       <use xlink:href="#ArialMT-33"/>
      </g>
     </g>
    </g>
    <g id="ytick_19">
     <g id="line2d_53">
      <path d="M 389.636963 76.82799 
L 532.969312 76.82799 
" clip-path="url(#p7157b51f3b)" style="fill: none; stroke: #cccccc; stroke-width: 0.8; stroke-linecap: round"/>
     </g>
     <g id="text_54">
      <!-- 4 -->
      <g style="fill: #262626" transform="translate(376.9327 79.662484)scale(0.0792 -0.0792)">
       <use xlink:href="#ArialMT-34"/>
      </g>
     </g>
    </g>
    <g id="ytick_20">
     <g id="line2d_54">
      <path d="M 389.636963 48.16152 
L 532.969312 48.16152 
" clip-path="url(#p7157b51f3b)" style="fill: none; stroke: #cccccc; stroke-width: 0.8; stroke-linecap: round"/>
     </g>
     <g id="text_55">
      <!-- 5 -->
      <g style="fill: #262626" transform="translate(376.9327 50.996014)scale(0.0792 -0.0792)">
       <use xlink:href="#ArialMT-35"/>
      </g>
     </g>
    </g>
    <g id="ytick_21">
     <g id="line2d_55">
      <path d="M 389.636963 19.49505 
L 532.969312 19.49505 
" clip-path="url(#p7157b51f3b)" style="fill: none; stroke: #cccccc; stroke-width: 0.8; stroke-linecap: round"/>
     </g>
     <g id="text_56">
      <!-- 6 -->
      <g style="fill: #262626" transform="translate(376.9327 22.329544)scale(0.0792 -0.0792)">
       <use xlink:href="#ArialMT-36"/>
      </g>
     </g>
    </g>
    <g id="text_57">
     <!-- Shear Stress (MPa) -->
     <g style="fill: #262626" transform="translate(371.11425 143.423385)rotate(-90)scale(0.0864 -0.0864)">
      <use xlink:href="#ArialMT-53"/>
      <use xlink:href="#ArialMT-68" x="66.699219"/>
      <use xlink:href="#ArialMT-65" x="122.314453"/>
      <use xlink:href="#ArialMT-61" x="177.929688"/>
      <use xlink:href="#ArialMT-72" x="233.544922"/>
      <use xlink:href="#ArialMT-20" x="266.845703"/>
      <use xlink:href="#ArialMT-53" x="294.628906"/>
      <use xlink:href="#ArialMT-74" x="361.328125"/>
      <use xlink:href="#ArialMT-72" x="389.111328"/>
      <use xlink:href="#ArialMT-65" x="422.412109"/>
      <use xlink:href="#ArialMT-73" x="478.027344"/>
      <use xlink:href="#ArialMT-73" x="528.027344"/>
      <use xlink:href="#ArialMT-20" x="578.027344"/>
      <use xlink:href="#ArialMT-28" x="605.810547"/>
      <use xlink:href="#ArialMT-4d" x="639.111328"/>
      <use xlink:href="#ArialMT-50" x="722.412109"/>
      <use xlink:href="#ArialMT-61" x="789.111328"/>
      <use xlink:href="#ArialMT-29" x="844.726562"/>
     </g>
    </g>
   </g>
   <g id="line2d_56">
    <path d="M 389.603256 169.099269 
L 392.670963 163.035082 
L 396.442087 156.181188 
L 400.154852 149.894406 
L 404.545248 142.89992 
L 409.59075 135.316307 
L 415.270095 127.236473 
L 420.868738 119.652115 
L 427.082439 111.598043 
L 433.893262 103.137344 
L 441.28434 94.322535 
L 449.23987 85.197575 
L 457.745076 75.799507 
L 466.786154 66.159754 
L 476.350209 56.305156 
L 486.425201 46.258788 
L 496.999874 36.040606 
L 508.063707 25.667964 
L 519.606853 15.156036 
L 531.620091 4.518149 
L 533.410645 2.9571 
L 533.410645 2.9571 
" clip-path="url(#p7157b51f3b)" style="fill: none; stroke: #bf77f6; stroke-linecap: round"/>
   </g>
   <g id="line2d_57">
    <path d="M 389.064109 184.918785 
L 391.269355 181.33123 
L 393.400436 178.290403 
L 396.157763 174.731589 
L 399.500975 170.798927 
L 403.395023 166.588568 
L 407.809812 162.166609 
L 412.71953 157.580015 
L 418.101985 152.863146 
L 423.938022 148.041767 
L 430.211031 143.135592 
L 437.458288 137.76057 
L 445.092809 132.381179 
L 453.634862 126.650654 
L 462.528166 120.958714 
L 472.276962 114.993619 
L 482.351139 109.089324 
L 493.240057 102.96524 
L 504.9185 96.656891 
L 517.364246 90.193493 
L 530.557743 83.599099 
L 533.359215 82.229991 
L 533.359215 82.229991 
" clip-path="url(#p7157b51f3b)" style="fill: none; stroke-dasharray: 3.7,1.6; stroke-dashoffset: 0; stroke: #bf77f6"/>
   </g>
   <g id="line2d_58">
    <path d="M 389.624007 183.948377 
L 391.62902 180.794834 
L 394.097861 177.356438 
L 397.003272 173.703087 
L 398.889736 171.302944 
L 402.936331 163.484423 
L 407.542356 155.086255 
L 412.648797 146.259367 
L 418.226363 137.082153 
L 424.257733 127.600612 
L 430.731182 117.84479 
L 437.63789 107.836215 
L 445.152408 97.342095 
L 453.080972 86.649662 
L 461.594859 75.540483 
L 470.682085 64.051412 
L 479.985309 52.642989 
L 490.016299 42.753217 
L 500.548422 32.68004 
L 511.723352 22.302579 
L 523.375569 11.787094 
L 533.11242 3.216675 
L 533.11242 3.216675 
" clip-path="url(#p7157b51f3b)" style="fill: none; stroke-dasharray: 2,3.3; stroke-dashoffset: 0; stroke: #000000; stroke-width: 2"/>
   </g>
   <g id="line2d_59">
    <path d="M 479.936343 191.49387 
L 479.936343 19.49505 
" clip-path="url(#p7157b51f3b)" style="fill: none; stroke-dasharray: 3.7,1.6; stroke-dashoffset: 0; stroke: #000000; stroke-opacity: 0.5"/>
   </g>
   <g id="line2d_60">
    <path d="M 398.666901 191.49387 
L 398.666901 19.49505 
" clip-path="url(#p7157b51f3b)" style="fill: none; stroke-dasharray: 3.7,1.6; stroke-dashoffset: 0; stroke: #000000; stroke-opacity: 0.5"/>
   </g>
   <g id="patch_15">
    <path d="M 389.636963 191.49387 
L 389.636963 19.49505 
" style="fill: none; stroke: #cccccc; stroke-linejoin: miter; stroke-linecap: square"/>
   </g>
   <g id="patch_16">
    <path d="M 532.969312 191.49387 
L 532.969312 19.49505 
" style="fill: none; stroke: #cccccc; stroke-linejoin: miter; stroke-linecap: square"/>
   </g>
   <g id="patch_17">
    <path d="M 389.636963 191.49387 
L 532.969312 191.49387 
" style="fill: none; stroke: #cccccc; stroke-linejoin: miter; stroke-linecap: square"/>
   </g>
   <g id="patch_18">
    <path d="M 389.636963 19.49505 
L 532.969312 19.49505 
" style="fill: none; stroke: #cccccc; stroke-linejoin: miter; stroke-linecap: square"/>
   </g>
   <g id="text_58">
    <!-- EXAMPLE_ROCK_3 -->
    <g style="fill: #262626" transform="translate(421.206112 13.49505)scale(0.0864 -0.0864)">
     <use xlink:href="#ArialMT-45"/>
     <use xlink:href="#ArialMT-58" x="66.699219"/>
     <use xlink:href="#ArialMT-41" x="133.398438"/>
     <use xlink:href="#ArialMT-4d" x="200.097656"/>
     <use xlink:href="#ArialMT-50" x="283.398438"/>
     <use xlink:href="#ArialMT-4c" x="350.097656"/>
     <use xlink:href="#ArialMT-45" x="405.712891"/>
     <use xlink:href="#ArialMT-5f" x="472.412109"/>
     <use xlink:href="#ArialMT-52" x="528.027344"/>
     <use xlink:href="#ArialMT-4f" x="600.244141"/>
     <use xlink:href="#ArialMT-43" x="678.027344"/>
     <use xlink:href="#ArialMT-4b" x="750.244141"/>
     <use xlink:href="#ArialMT-5f" x="816.943359"/>
     <use xlink:href="#ArialMT-33" x="872.558594"/>
    </g>
   </g>
   <g id="legend_3">
    <g id="patch_19">
     <path d="M 395.180963 59.440312 
L 469.083225 59.440312 
Q 470.667225 59.440312 470.667225 57.856312 
L 470.667225 25.03905 
Q 470.667225 23.45505 469.083225 23.45505 
L 395.180963 23.45505 
Q 393.596963 23.45505 393.596963 25.03905 
L 393.596963 57.856312 
Q 393.596963 59.440312 395.180963 59.440312 
z
" style="fill: #ffffff; opacity: 0.8; stroke: #cccccc; stroke-width: 0.8; stroke-linejoin: miter"/>
    </g>
    <g id="line2d_61">
     <path d="M 396.764963 29.520037 
L 404.684963 29.520037 
L 412.604962 29.520037 
" style="fill: none; stroke: #bf77f6; stroke-linecap: round"/>
    </g>
    <g id="text_59">
     <!-- D = 0 -->
     <g style="fill: #262626" transform="translate(418.940963 32.292037)scale(0.0792 -0.0792)">
      <use xlink:href="#ArialMT-44"/>
      <use xlink:href="#ArialMT-20" x="72.216797"/>
      <use xlink:href="#ArialMT-3d" x="100"/>
      <use xlink:href="#ArialMT-20" x="158.398438"/>
      <use xlink:href="#ArialMT-30" x="186.181641"/>
     </g>
    </g>
    <g id="line2d_62">
     <path d="M 396.764963 40.723125 
L 404.684963 40.723125 
L 412.604962 40.723125 
" style="fill: none; stroke-dasharray: 3.7,1.6; stroke-dashoffset: 0; stroke: #bf77f6"/>
    </g>
    <g id="text_60">
     <!-- D = 1 -->
     <g style="fill: #262626" transform="translate(418.940963 43.495125)scale(0.0792 -0.0792)">
      <use xlink:href="#ArialMT-44"/>
      <use xlink:href="#ArialMT-20" x="72.216797"/>
      <use xlink:href="#ArialMT-3d" x="100"/>
      <use xlink:href="#ArialMT-20" x="158.398438"/>
      <use xlink:href="#ArialMT-31" x="186.181641"/>
     </g>
    </g>
    <g id="line2d_63">
     <path d="M 396.764963 51.926212 
L 404.684963 51.926212 
L 412.604962 51.926212 
" style="fill: none; stroke-dasharray: 2,3.3; stroke-dashoffset: 0; stroke: #000000; stroke-width: 2"/>
    </g>
    <g id="text_61">
     <!-- Transitional D -->
     <g style="fill: #262626" transform="translate(418.940963 54.698212)scale(0.0792 -0.0792)">
      <use xlink:href="#ArialMT-54"/>
      <use xlink:href="#ArialMT-72" x="57.333984"/>
      <use xlink:href="#ArialMT-61" x="90.634766"/>
      <use xlink:href="#ArialMT-6e" x="146.25"/>
      <use xlink:href="#ArialMT-73" x="201.865234"/>
      <use xlink:href="#ArialMT-69" x="251.865234"/>
      <use xlink:href="#ArialMT-74" x="274.082031"/>
      <use xlink:href="#ArialMT-69" x="301.865234"/>
      <use xlink:href="#ArialMT-6f" x="324.082031"/>
      <use xlink:href="#ArialMT-6e" x="379.697266"/>
      <use xlink:href="#ArialMT-61" x="435.3125"/>
      <use xlink:href="#ArialMT-6c" x="490.927734"/>
      <use xlink:href="#ArialMT-20" x="513.144531"/>
      <use xlink:href="#ArialMT-44" x="540.927734"/>
     </g>
    </g>
   </g>
   <g id="text_62">
    <!-- UDL:  -->
    <g style="opacity: 0.5" transform="translate(481.369666 181.178205)scale(0.08 -0.08)">
     <use xlink:href="#Arial-BoldMT-55"/>
     <use xlink:href="#Arial-BoldMT-44" x="72.216797"/>
     <use xlink:href="#Arial-BoldMT-4c" x="144.433594"/>
     <use xlink:href="#Arial-BoldMT-3a" x="205.517578"/>
     <use xlink:href="#Arial-BoldMT-20" x="238.818359"/>
    </g>
    <!-- 150 m -->
    <g style="opacity: 0.5" transform="translate(481.369666 189.628455)scale(0.08 -0.08)">
     <use xlink:href="#Arial-BoldMT-31"/>
     <use xlink:href="#Arial-BoldMT-35" x="55.615234"/>
     <use xlink:href="#Arial-BoldMT-30" x="111.230469"/>
     <use xlink:href="#Arial-BoldMT-20" x="166.845703"/>
     <use xlink:href="#Arial-BoldMT-6d" x="194.628906"/>
    </g>
   </g>
   <g id="text_63">
    <!-- FDL: 15 m -->
    <g style="opacity: 0.5" transform="translate(400.100224 189.628455)scale(0.08 -0.08)">
     <use xlink:href="#Arial-BoldMT-46"/>
     <use xlink:href="#Arial-BoldMT-44" x="61.083984"/>
     <use xlink:href="#Arial-BoldMT-4c" x="133.300781"/>
     <use xlink:href="#Arial-BoldMT-3a" x="194.384766"/>
     <use xlink:href="#Arial-BoldMT-20" x="227.685547"/>
     <use xlink:href="#Arial-BoldMT-31" x="255.46875"/>
     <use xlink:href="#Arial-BoldMT-35" x="311.083984"/>
     <use xlink:href="#Arial-BoldMT-20" x="366.699219"/>
     <use xlink:href="#Arial-BoldMT-6d" x="394.482422"/>
    </g>
   </g>
  </g>
 </g>
 <defs>
  <clipPath id="pfcee3c1965">
   <rect x="32.012363" y="19.49505" width="143.33235" height="171.99882"/>
  </clipPath>
  <clipPath id="pe429daba5b">
   <rect x="210.824663" y="19.49505" width="143.33235" height="171.99882"/>
  </clipPath>
  <clipPath id="p7157b51f3b">
   <rect x="389.636963" y="19.49505" width="143.33235" height="171.99882"/>
  </clipPath>
 </defs>
</svg>
